<?xml version="1.0" standalone="no"?>
<!DOCTYPE svg PUBLIC "-//W3C//DTD SVG 20010904//EN"
 "http://www.w3.org/TR/2001/REC-SVG-20010904/DTD/svg10.dtd">
<svg version="1.0" xmlns="http://www.w3.org/2000/svg"
 width="430.000000pt" height="430.000000pt" viewBox="0 0 430.000000 430.000000"
 preserveAspectRatio="xMidYMid meet">
<metadata>
Created by potrace 1.11, written by Peter Selinger 2001-2013
</metadata>
<g transform="translate(0.000000,430.000000) scale(0.100000,-0.100000)"
fill="#000000" stroke="none">
<path d="M1310 3708 c0 -3 -10 -4 -21 -1 -12 4 -20 2 -18 -3 4 -10 106 -188
183 -319 22 -38 46 -79 52 -90 6 -11 27 -47 47 -80 19 -33 56 -97 82 -142 25
-45 88 -155 140 -243 52 -88 95 -163 95 -165 0 -3 16 -29 35 -59 19 -30 35
-57 35 -60 0 -3 13 -25 29 -48 16 -24 27 -46 25 -50 -3 -5 -1 -8 4 -8 5 0 17
-15 26 -32 9 -18 30 -55 46 -83 16 -27 39 -69 51 -92 21 -39 49 -58 49 -32 0
6 14 30 30 54 17 24 30 46 30 50 0 3 11 22 24 43 12 20 24 42 25 47 1 6 8 17
14 25 7 8 18 26 25 39 35 61 55 96 134 231 46 80 100 172 118 205 19 33 37 62
42 63 4 2 8 8 8 13 0 4 20 42 44 83 24 41 47 84 51 95 3 12 10 21 14 21 9 0
35 51 33 63 -1 4 3 7 10 7 6 0 9 3 5 6 -3 4 4 21 16 38 13 17 29 43 37 59 7
15 17 27 22 27 4 0 8 8 8 18 0 11 9 27 20 37 11 10 18 20 15 23 -3 3 1 12 9
21 7 9 30 48 51 86 21 39 49 87 62 108 14 22 23 40 21 42 -6 6 -104 8 -114 2
-5 -3 -15 -3 -21 1 -14 9 -107 7 -122 -2 -6 -4 -11 -4 -11 1 0 9 -72 9 -87 0
-5 -3 -14 -3 -20 1 -14 9 -107 7 -122 -2 -6 -4 -11 -4 -11 1 0 9 -72 9 -87 0
-5 -3 -14 -3 -20 1 -14 9 -107 7 -122 -2 -6 -4 -11 -4 -11 1 0 9 -72 9 -87 0
-5 -3 -14 -3 -20 1 -14 9 -107 7 -122 -2 -6 -4 -11 -4 -11 1 0 9 -77 9 -86 0
-3 -3 -12 -3 -19 0 -20 7 -635 9 -635 1z m1578 -63 c3 -3 0 -5 -7 -5 -6 0 -28
-7 -49 -16 -20 -8 -39 -14 -41 -14 -2 1 -7 -2 -10 -7 -9 -13 -106 -73 -118
-73 -6 0 -16 -7 -23 -15 -7 -8 -16 -12 -21 -9 -5 3 -9 1 -9 -4 0 -5 -14 -15
-31 -22 -17 -7 -36 -18 -42 -25 -7 -6 -32 -21 -57 -34 -25 -12 -90 -49 -145
-82 -55 -33 -112 -65 -127 -72 -16 -6 -28 -15 -28 -19 0 -15 -35 -8 -75 16
-48 28 -282 162 -310 178 -11 6 -74 43 -140 82 -66 38 -148 84 -181 100 l-62
31 736 -2 c404 -2 737 -5 740 -8z m-1358 -119 c47 -28 94 -56 105 -63 11 -7
31 -18 45 -25 14 -7 69 -39 122 -70 53 -32 101 -58 107 -58 5 0 11 -4 13 -8 2
-5 46 -32 98 -62 52 -29 97 -55 99 -56 2 -2 4 -194 5 -428 l1 -424 -28 61
c-15 34 -32 69 -37 77 -34 54 -106 177 -109 185 -2 6 -15 28 -29 50 -23 36
-92 155 -160 275 -14 25 -30 48 -36 52 -6 4 -8 8 -4 8 4 0 -18 42 -48 92 -31
51 -59 99 -63 108 -13 31 -95 165 -103 168 -4 2 -8 12 -8 23 0 10 -4 19 -8 19
-4 0 -18 19 -30 43 -12 23 -34 60 -48 82 l-27 39 29 -19 c16 -10 67 -42 114
-69z m1376 62 c-22 -32 -146 -236 -146 -242 0 -2 -20 -37 -45 -78 -24 -40 -54
-91 -66 -113 -12 -22 -24 -42 -28 -45 -7 -6 -49 -82 -70 -127 -8 -18 -19 -33
-23 -33 -4 0 -8 -4 -8 -10 0 -5 -13 -31 -28 -57 -16 -27 -48 -82 -73 -123 -24
-41 -48 -78 -54 -82 -5 -4 -6 -8 -1 -8 5 0 3 -7 -4 -15 -16 -20 -46 -71 -67
-117 -10 -21 -21 -38 -25 -38 -5 0 -8 -6 -8 -14 0 -8 -3 -16 -7 -18 -5 -1 -19
-28 -32 -58 -14 -30 -28 -58 -31 -62 -3 -4 -5 181 -5 412 0 230 2 421 5 423 3
2 25 15 50 29 25 14 83 48 130 75 47 28 89 51 94 51 5 0 12 4 15 9 8 11 106
68 107 62 0 -2 8 4 18 14 10 9 24 17 32 17 8 0 14 5 14 10 0 6 4 10 9 10 7 0
67 33 111 60 38 24 145 89 149 89 2 1 -4 -9 -13 -21z"/>
<path d="M1175 3619 c-19 -33 -35 -62 -35 -64 0 -3 -77 -132 -110 -185 -32
-52 -150 -265 -150 -272 0 -4 -4 -8 -10 -8 -5 0 -10 -4 -10 -9 0 -9 -99 -180
-110 -191 -3 -3 -17 -27 -31 -55 -14 -27 -76 -135 -137 -239 -62 -104 -112
-192 -112 -196 0 -4 -9 -19 -21 -34 -11 -14 -17 -26 -12 -26 4 0 3 -4 -2 -8
-11 -7 -31 -39 -82 -129 -21 -39 -22 -43 -6 -44 72 -3 1745 0 1748 3 2 2 -9
28 -26 58 -16 30 -35 66 -41 80 -7 14 -15 27 -18 30 -11 10 -149 247 -152 260
-2 8 -11 23 -21 34 -10 12 -20 31 -23 43 -4 13 -10 23 -15 23 -5 0 -9 4 -9 9
0 5 -29 56 -64 114 -35 59 -67 115 -71 127 -3 11 -11 20 -16 20 -5 0 -9 6 -9
14 0 8 -7 22 -16 30 -8 9 -13 16 -10 16 3 0 -33 63 -79 140 -46 77 -81 140
-77 140 4 0 2 4 -4 8 -6 4 -19 23 -29 42 -9 19 -24 43 -33 53 -8 9 -11 17 -6
17 5 0 4 4 -1 8 -9 6 -47 68 -129 214 -12 21 -24 38 -28 38 -4 0 -23 -27 -43
-61z m19 -94 c-4 -8 -11 -15 -16 -15 -6 0 -5 6 2 15 7 8 14 15 16 15 2 0 1 -7
-2 -15z m63 -1 c-8 -8 16 -55 103 -204 36 -63 69 -122 73 -130 4 -8 16 -28 27
-45 11 -16 23 -37 27 -45 3 -8 32 -58 63 -110 31 -52 74 -126 95 -165 21 -38
44 -73 49 -77 7 -5 7 -8 1 -8 -6 0 -6 -3 1 -8 6 -4 57 -88 113 -187 57 -99
115 -198 130 -220 15 -22 31 -46 35 -53 8 -13 -83 35 -114 60 -9 7 -34 22 -56
33 -21 11 -73 41 -115 66 -42 26 -103 61 -135 79 -55 30 -294 169 -303 176 -5
5 -7 835 -2 840 2 2 7 4 9 4 3 0 3 -3 -1 -6z m-64 -36 c-4 -7 -8 -188 -9 -403
-1 -214 -2 -393 -3 -398 0 -4 -11 -12 -23 -17 -13 -6 -41 -22 -63 -35 -22 -14
-56 -33 -75 -43 -19 -9 -44 -25 -54 -34 -11 -10 -23 -18 -27 -18 -9 0 -222
-122 -229 -131 -3 -3 -32 -21 -65 -38 -33 -17 -78 -43 -100 -56 -22 -14 -53
-32 -69 -41 l-30 -16 32 40 c18 22 32 43 32 47 0 3 43 78 95 166 53 88 106
180 117 205 12 24 26 44 30 44 4 0 8 4 8 9 0 4 22 46 49 92 26 46 74 129 106
184 32 55 73 125 91 157 19 31 34 61 34 67 0 6 3 11 8 11 4 0 16 17 27 38 19
36 63 112 92 160 7 12 18 22 24 22 6 0 7 -5 2 -12z m129 -916 c101 -58 142
-81 243 -138 28 -15 56 -34 63 -41 7 -7 20 -13 27 -13 7 0 20 -6 27 -13 14
-14 119 -74 213 -121 l62 -31 -741 0 -741 0 70 36 c39 19 116 62 173 95 56 32
114 66 130 74 15 9 59 35 99 58 39 23 76 42 82 42 6 0 11 3 11 8 0 4 10 12 23
17 44 21 112 60 125 73 7 6 17 12 22 12 5 0 55 -26 112 -58z"/>
<path d="M3066 3647 c-20 -33 -113 -196 -162 -282 -15 -27 -30 -52 -33 -55 -3
-3 -14 -21 -25 -40 -10 -19 -52 -93 -94 -165 -41 -71 -83 -143 -92 -160 -8
-16 -24 -43 -34 -58 -11 -16 -26 -42 -35 -58 -52 -95 -156 -276 -166 -289 -7
-8 -25 -37 -40 -65 -14 -27 -35 -63 -45 -80 -11 -16 -28 -46 -38 -65 -36 -67
-76 -135 -81 -140 -12 -10 -11 -30 2 -31 68 -4 1739 0 1743 4 6 5 -25 78 -36
87 -4 3 -17 25 -31 50 -13 25 -27 47 -32 48 -4 2 -5 8 -1 13 3 5 2 9 -3 9 -4
0 -14 15 -22 33 -8 17 -17 34 -20 37 -11 10 -69 108 -76 129 -3 12 -11 21 -16
21 -6 0 -8 4 -5 9 3 5 -1 12 -10 15 -9 4 -14 9 -11 13 4 3 -2 18 -12 32 -9 14
-32 53 -51 86 -48 86 -59 106 -144 250 -42 71 -76 135 -76 141 0 7 -4 14 -8
16 -10 4 -262 435 -262 447 0 5 -3 11 -7 13 -5 2 -16 16 -25 33 -22 40 -30 40
-52 2z m-1 -154 c-2 -27 -3 -220 -4 -430 -1 -333 -3 -383 -16 -383 -8 0 -15
-4 -15 -10 0 -5 -5 -10 -11 -10 -6 0 -23 -8 -37 -19 -15 -10 -47 -29 -72 -43
-25 -14 -74 -42 -110 -63 -36 -21 -79 -46 -97 -56 -17 -10 -50 -29 -72 -44
-23 -14 -41 -23 -41 -20 0 3 -10 -3 -22 -15 -12 -11 -27 -20 -34 -20 -6 0 -17
-7 -24 -15 -7 -8 -16 -12 -21 -9 -5 3 -9 1 -9 -3 0 -5 -17 -17 -37 -28 -21
-11 -55 -30 -75 -42 -21 -13 -38 -21 -38 -18 0 3 15 26 34 52 19 27 44 66 56
88 12 22 46 81 75 130 29 50 94 162 145 250 51 88 96 162 100 165 4 3 10 15
14 27 7 23 157 279 176 301 6 6 8 12 4 12 -4 0 0 8 8 18 9 9 19 27 22 40 4 12
11 22 15 22 4 0 25 38 46 85 22 47 41 85 41 85 1 0 1 -21 -1 -47z m89 -35 c1
-4 7 -13 14 -19 6 -7 12 -16 12 -20 0 -5 30 -59 67 -121 125 -214 166 -283
188 -323 32 -60 123 -214 155 -265 16 -25 39 -65 51 -90 12 -25 35 -64 51 -87
16 -24 25 -43 21 -43 -4 0 -3 -4 3 -8 6 -4 21 -27 35 -52 13 -25 43 -73 66
-108 l42 -62 -57 31 c-31 17 -64 38 -73 45 -8 8 -18 14 -22 14 -6 0 -202 113
-269 156 -21 13 -41 24 -45 24 -5 1 -39 21 -78 45 -38 25 -79 49 -91 54 -11 5
-38 21 -60 36 l-39 26 -1 422 c-1 386 0 419 14 387 9 -19 16 -38 16 -42z m-34
-843 c7 -9 15 -13 18 -11 3 3 19 -5 36 -17 17 -12 40 -27 51 -33 82 -44 171
-94 232 -131 39 -24 76 -43 82 -43 6 0 11 -4 11 -10 0 -5 5 -10 10 -10 6 0 29
-12 53 -27 23 -15 83 -48 132 -73 l90 -45 -741 0 -741 0 66 34 c36 18 136 74
221 124 85 49 178 102 205 116 28 14 52 29 55 32 3 3 37 23 75 44 39 22 79 45
90 51 28 17 41 16 55 -1z"/>
<path d="M1970 2095 c0 -7 -273 -9 -802 -8 -442 0 -811 -1 -820 -4 -15 -3 -16
-7 -5 -26 7 -12 17 -29 23 -37 6 -8 23 -35 36 -60 14 -25 48 -85 77 -133 28
-49 51 -93 51 -98 0 -5 5 -9 10 -9 6 0 10 -4 10 -10 0 -5 18 -39 40 -75 22
-36 40 -67 40 -69 0 -2 18 -34 40 -70 22 -36 40 -68 40 -70 0 -2 20 -37 45
-77 25 -40 45 -79 45 -85 0 -7 3 -14 8 -16 4 -1 27 -37 51 -78 25 -41 48 -78
54 -81 5 -3 8 -9 7 -13 -1 -7 139 -257 149 -266 3 -3 15 -21 25 -40 33 -60 98
-174 111 -193 11 -16 16 -13 46 35 18 29 32 56 31 61 -1 4 2 7 7 7 5 0 12 8
15 18 8 21 28 55 45 76 7 9 11 16 7 16 -3 0 8 21 24 47 17 26 30 52 30 59 0 7
4 14 8 16 7 3 120 190 151 251 8 15 18 27 23 27 4 0 8 9 8 19 0 11 3 21 8 23
4 2 15 19 24 38 10 19 29 53 43 75 14 22 35 59 47 83 12 23 26 42 30 42 4 0 8
5 8 10 0 9 21 48 75 138 6 9 30 53 54 97 25 44 47 82 50 85 3 3 17 25 30 50
14 25 27 47 30 50 3 3 20 31 36 62 17 32 33 58 36 58 4 0 9 8 12 18 2 9 8 24
11 33 5 12 0 18 -18 21 -14 3 -26 2 -26 -2 0 -11 -64 -6 -72 5 -5 7 -8 7 -8 0z
m-25 -65 c5 0 -26 -18 -70 -41 -44 -22 -84 -44 -90 -49 -11 -8 -49 -30 -155
-88 -36 -20 -66 -40 -68 -44 -2 -4 -8 -8 -13 -8 -6 0 -61 -30 -122 -66 -62
-37 -135 -80 -164 -95 l-52 -28 -24 20 c-14 10 -28 19 -32 19 -3 0 -44 23 -91
50 -47 28 -89 50 -94 50 -5 0 -13 8 -19 18 -5 9 -12 16 -16 14 -8 -4 -178 89
-187 102 -5 7 -8 7 -8 1 0 -6 -3 -6 -8 0 -9 13 -62 45 -169 101 -45 23 -75 44
-66 46 12 2 1269 1 1448 -2z m12 -82 c-14 -18 -34 -49 -45 -68 -27 -49 -120
-207 -149 -255 -13 -22 -29 -52 -36 -67 -6 -16 -15 -28 -19 -28 -4 0 -8 -4 -8
-9 0 -7 -132 -240 -254 -444 -25 -43 -46 -81 -46 -84 0 -3 -19 -36 -42 -72
-23 -36 -58 -99 -77 -139 l-36 -73 2 417 c1 228 4 422 7 429 3 8 24 24 48 36
64 32 232 132 239 142 3 5 8 7 10 5 2 -1 22 8 44 22 22 13 54 32 70 41 64 34
132 73 183 106 29 18 56 33 60 33 4 1 20 12 37 25 38 31 43 25 12 -17z m-1412
-17 c17 -10 107 -62 200 -116 94 -54 187 -109 208 -122 43 -27 95 -57 147 -85
19 -11 46 -25 60 -33 l25 -14 0 -426 c1 -393 0 -423 -15 -387 -16 39 -89 173
-99 182 -7 6 -55 91 -79 140 -9 19 -19 37 -22 40 -11 10 -120 201 -120 211 0
5 -3 9 -7 9 -5 0 -13 10 -19 23 -13 27 -200 352 -222 387 -9 14 -15 28 -14 33
1 4 -3 7 -8 7 -6 0 -10 4 -10 9 0 12 -89 159 -101 166 -5 4 -9 11 -9 16 0 9
20 0 85 -40z"/>
<path d="M2337 2093 c-3 -5 -28 -8 -55 -7 -50 2 -85 -10 -67 -23 6 -5 19 -26
30 -48 11 -22 26 -46 33 -53 6 -7 12 -19 12 -26 0 -8 7 -19 15 -26 9 -7 13
-15 11 -17 -3 -3 -1 -10 5 -17 22 -27 57 -85 53 -89 -3 -2 2 -10 11 -17 8 -7
15 -19 15 -26 0 -8 5 -14 11 -14 5 0 7 -4 4 -10 -3 -5 -3 -10 2 -10 4 0 19
-21 33 -47 14 -27 37 -67 52 -89 16 -23 28 -44 28 -47 0 -3 23 -44 50 -92 28
-48 50 -90 50 -95 0 -5 4 -10 8 -12 5 -1 21 -24 35 -50 14 -26 44 -78 67 -115
22 -37 40 -72 39 -77 0 -5 3 -12 8 -15 8 -5 24 -30 73 -116 9 -16 32 -55 50
-85 19 -30 45 -78 60 -106 15 -28 36 -65 48 -81 12 -17 19 -33 15 -37 -3 -3
-1 -6 5 -6 7 0 12 -7 12 -15 0 -8 5 -15 10 -15 6 0 10 -6 10 -14 0 -7 6 -19
13 -25 11 -8 23 5 57 64 23 42 46 78 51 81 5 3 9 14 9 25 0 10 5 19 10 19 6 0
10 4 10 10 0 5 18 39 40 75 22 36 40 70 40 75 0 6 3 10 8 10 4 0 12 10 18 23
20 42 59 111 71 124 6 7 15 22 18 33 3 11 11 20 16 20 5 0 9 6 9 14 0 8 18 44
41 81 46 77 75 127 99 170 9 17 28 49 43 72 15 24 27 46 27 50 0 5 16 32 35
60 19 29 35 54 35 57 0 4 28 53 85 148 55 91 79 134 80 138 0 3 17 33 38 66
20 34 37 67 37 73 0 6 5 11 10 11 6 0 10 4 10 10 0 5 -18 9 -40 7 -24 -2 -40
1 -40 7 0 7 -3 8 -8 1 -9 -12 -1534 -14 -1543 -1 -4 4 -9 4 -12 -1z m758 -62
c369 0 688 1 709 3 36 4 33 1 -50 -43 -80 -43 -132 -72 -189 -108 -11 -7 -36
-21 -55 -31 -48 -25 -197 -110 -240 -137 -47 -30 -97 -59 -143 -83 l-38 -20
-127 75 c-70 41 -145 85 -167 98 -22 12 -56 31 -75 42 -44 25 -155 88 -228
131 -32 18 -76 41 -99 52 -24 11 -43 21 -43 23 0 2 17 2 38 1 20 -2 339 -3
707 -3z m750 -70 c-3 -12 -11 -19 -16 -16 -8 6 -11 -2 -8 -21 0 -4 -3 -10 -8
-13 -9 -6 -60 -91 -178 -296 -32 -55 -74 -127 -93 -160 -19 -33 -42 -73 -50
-90 -9 -16 -18 -32 -22 -35 -3 -3 -23 -36 -44 -75 -21 -38 -51 -90 -66 -115
-15 -25 -54 -90 -86 -145 -32 -55 -63 -103 -69 -107 -5 -4 -6 -8 -1 -8 5 0 3
-7 -4 -15 -7 -8 -9 -15 -4 -15 5 0 4 -4 -2 -8 -13 -8 -44 -64 -60 -107 -8 -23
-11 75 -10 398 l1 428 60 32 c33 18 65 36 71 42 6 6 30 19 53 29 22 11 41 23
41 28 0 4 5 8 10 8 6 0 56 27 111 60 55 33 102 60 105 60 3 0 29 16 59 35 30
19 55 31 55 27 0 -4 4 -2 8 3 4 6 36 28 72 49 36 22 67 44 69 49 7 17 13 -2 6
-22z m-1482 7 c12 -7 24 -16 27 -19 3 -3 26 -18 52 -32 25 -14 64 -37 87 -51
22 -14 43 -26 45 -26 7 0 238 -136 252 -148 6 -5 20 -13 32 -16 12 -4 22 -12
22 -17 0 -5 3 -8 8 -7 6 2 44 -18 140 -74 l32 -20 1 -381 c1 -210 3 -399 4
-419 2 -21 2 -38 -1 -38 -3 0 -19 29 -35 65 -17 36 -35 65 -40 65 -5 0 -9 8
-9 19 0 10 -8 29 -18 42 -11 13 -30 44 -44 69 -66 118 -142 246 -148 250 -4 3
-10 15 -14 27 -4 12 -18 38 -31 57 -13 20 -21 36 -17 36 4 0 3 4 -3 8 -11 8
-19 21 -63 97 -109 192 -231 400 -268 458 -24 37 -41 67 -39 67 3 0 15 -6 28
-12z"/>
<path d="M2125 2019 c-15 -23 -34 -57 -41 -75 -7 -18 -19 -38 -26 -46 -7 -7
-23 -33 -36 -58 -12 -25 -41 -74 -62 -109 -22 -34 -40 -66 -40 -70 0 -5 -11
-21 -24 -36 -14 -16 -24 -31 -24 -34 3 -12 -26 -61 -35 -61 -6 0 -8 -3 -4 -6
3 -3 -16 -42 -44 -86 -27 -44 -49 -82 -49 -84 0 -3 -16 -30 -35 -60 -19 -30
-35 -56 -35 -58 0 -7 -143 -251 -155 -266 -8 -8 -14 -18 -14 -23 0 -4 -7 -17
-14 -30 -42 -68 -77 -128 -77 -131 0 -3 -21 -40 -46 -83 -86 -144 -95 -163
-76 -164 22 -1 1713 -1 1730 0 20 2 15 14 -56 138 -38 65 -95 163 -127 218
-31 55 -64 108 -73 118 -8 9 -12 17 -8 17 4 0 -2 14 -14 30 -12 17 -18 30 -13
30 4 0 3 4 -2 8 -6 4 -32 43 -58 87 -25 44 -50 85 -54 91 -8 10 -43 73 -72
129 -9 17 -19 32 -23 33 -5 2 -8 8 -8 14 0 6 -13 30 -30 55 -16 24 -30 50 -30
57 0 7 -9 21 -20 31 -11 10 -20 21 -20 25 0 4 -29 58 -65 119 -36 62 -65 116
-65 122 0 5 -3 9 -7 9 -5 0 -13 10 -19 23 -28 60 -71 134 -86 150 -16 18 -17
17 -43 -24z m87 -181 c-1 -5 3 -8 8 -8 6 0 10 -4 10 -9 0 -5 32 -64 72 -132
138 -238 174 -300 278 -480 58 -100 115 -198 127 -218 13 -20 32 -54 44 -76
18 -33 95 -164 142 -240 6 -11 17 -23 22 -27 6 -5 6 -8 -2 -8 -6 0 -18 7 -27
15 -8 8 -17 15 -20 15 -3 0 -29 14 -58 31 -116 69 -335 197 -378 221 -91 51
-120 67 -159 92 -22 15 -43 26 -47 26 -3 0 -13 8 -22 17 -15 15 -17 57 -17
436 0 375 1 416 14 386 8 -19 14 -37 13 -41z m-88 -353 l-1 -415 -24 -18 c-13
-10 -55 -36 -94 -57 -38 -21 -72 -42 -75 -45 -3 -3 -30 -19 -60 -34 -30 -16
-63 -35 -72 -44 -10 -8 -18 -12 -18 -8 0 3 -24 -9 -52 -28 -86 -55 -226 -136
-236 -136 -4 0 -17 -8 -28 -18 -22 -19 -60 -42 -70 -42 -3 0 10 22 30 49 20
27 36 51 36 55 0 3 19 36 42 73 42 69 61 102 106 183 14 25 53 93 88 153 35
59 64 112 64 117 0 6 5 10 10 10 6 0 10 7 10 15 0 8 5 15 12 15 6 0 9 3 5 6
-3 4 6 25 22 48 15 22 45 75 67 116 21 41 42 77 45 80 10 8 131 220 161 283
15 31 29 57 30 57 2 0 3 -187 2 -415z m221 -585 c61 -35 128 -73 150 -86 22
-13 58 -33 80 -45 22 -12 43 -27 47 -33 5 -6 8 -7 8 -1 0 6 3 6 8 -1 4 -5 25
-18 47 -28 22 -11 42 -22 45 -26 6 -10 106 -62 145 -76 22 -8 -161 -11 -720
-11 -631 0 -744 2 -712 13 21 7 50 22 65 32 15 10 38 24 52 30 14 7 43 23 65
36 150 87 255 147 352 202 61 35 126 72 144 83 l32 20 41 -24 c23 -12 91 -51
151 -85z"/>
</g>
</svg>
